<svg width="174" height="62" viewBox="0 0 174 62" fill="none" xmlns="http://www.w3.org/2000/svg">
<g clip-path="url(#clip0_16_513)">
<path d="M46.737 18.2584L28.9902 8.05928C28.0942 7.54142 26.9814 7.54142 26.0854 8.05928L8.33854 18.2584C7.44253 18.7762 6.87891 19.7256 6.87891 20.7614V41.1595C6.87891 42.1952 7.42808 43.1447 8.33854 43.6625L26.0854 53.8616C26.9814 54.3795 28.0942 54.3795 28.9902 53.8616L46.737 43.6625C47.6331 43.1447 48.1967 42.1952 48.1967 41.1595V20.7614C48.1967 19.7256 47.6331 18.7762 46.737 18.2584ZM23.5563 43.4324C23.5563 43.4324 21.1718 45.4031 17.8767 44.2235C14.5817 43.044 14.1048 39.8648 14.1048 39.8648C14.1048 39.8648 13.7002 37.0022 14.7985 35.3767C15.7234 34.0245 22.4869 27.5799 22.4869 27.5799C22.4869 27.5799 24.2211 25.7242 27.993 26.6881C27.993 26.6881 29.5827 27.134 30.4643 28.2273C31.3459 29.3062 29.8573 30.7878 29.048 30.3131C28.2387 29.8384 27.6462 28.9465 25.8542 29.0472C24.0621 29.1479 22.6169 31.0755 22.6169 31.0755L17.3565 36.3693C17.2264 36.4987 17.1253 36.657 17.0385 36.8152C16.7929 37.3331 16.4171 38.527 17.0096 39.9512C17.66 41.5191 19.2497 42.0226 20.6515 41.8212C21.1862 41.7493 21.6776 41.4904 22.0678 41.1164L23.7586 39.534L26.0131 37.3331C26.0131 37.3331 27.863 37.9948 29.1781 37.9948L23.5563 43.4324ZM40.2626 26.5442C39.3377 27.8964 32.5743 34.341 32.5743 34.341C32.5743 34.341 30.84 36.1966 27.0681 35.2328C27.0681 35.2328 25.4784 34.7869 24.5968 33.6936C23.7153 32.6147 25.2038 31.1331 26.0131 31.6078C26.8224 32.0825 27.4294 32.9744 29.207 32.8737C30.999 32.773 32.4442 30.8454 32.4442 30.8454L37.7047 25.5516C37.8347 25.4222 37.9359 25.2639 38.0226 25.1057C38.2683 24.5878 38.644 23.3939 38.0515 21.9697C37.4012 20.4017 35.8259 19.8983 34.4096 20.0997C33.8749 20.1716 33.3836 20.4305 32.9934 20.8045L31.3025 22.3869L29.048 24.5878C29.048 24.5878 27.1982 23.9261 25.8831 23.9261L31.5193 18.4885C31.5193 18.4885 33.9038 16.5177 37.1988 17.6973C40.4939 18.8769 40.9708 22.056 40.9708 22.056C40.9708 22.056 41.3754 24.9187 40.2626 26.5442Z" fill="#00D4C6"/>
<path d="M27.5452 61.9173C26.7792 61.9173 26.0133 61.7159 25.3196 61.3275L2.22558 48.05C0.852658 47.2588 0 45.7915 0 44.2235V17.6973C0 16.1294 0.852658 14.6621 2.22558 13.8709L25.3196 0.593387C26.6925 -0.197796 28.3978 -0.197796 29.7563 0.593387L52.8359 13.8565C54.2088 14.6477 55.0615 16.115 55.0615 17.6829V44.2235C55.0615 45.7915 54.2088 47.2588 52.8359 48.05L29.7563 61.3275C29.0771 61.7159 28.3111 61.9173 27.5452 61.9173ZM27.5452 3.05325C27.314 3.05325 27.0683 3.11079 26.8515 3.24026L3.75748 16.5034C3.33837 16.7479 3.06379 17.2082 3.06379 17.6973V44.2379C3.06379 44.727 3.32392 45.1874 3.75748 45.4319L26.837 58.695C27.2561 58.9396 27.7909 58.9396 28.21 58.695L51.3184 45.4175C51.7375 45.173 52.0121 44.7126 52.0121 44.2235V17.6973C52.0121 17.2082 51.752 16.7479 51.3184 16.5034L28.2244 3.24026C28.0076 3.11079 27.7764 3.05325 27.5452 3.05325Z" fill="#00D4C6"/>
<path d="M69.5133 26.8463C69.5278 28.3999 70.4383 29.3637 71.8545 29.3637C73.3142 29.3637 74.109 28.4286 74.109 26.7024V13.7414H79.066V26.7456C79.066 31.1187 76.3924 33.5498 71.8979 33.5498C67.5045 33.5498 64.7153 30.9748 64.7153 26.8463H69.5133Z" fill="#00D4C6"/>
<path d="M81.4795 25.8393C81.4795 21.0347 84.4421 18.1577 89.0233 18.1577C93.6335 18.1577 96.5672 21.0347 96.5672 25.8393C96.5672 30.7447 93.6768 33.5354 89.0233 33.5354C84.3699 33.5354 81.4795 30.7303 81.4795 25.8393ZM91.6969 25.8537C91.6969 23.2068 90.6564 21.6676 89.0233 21.6676C87.4047 21.6676 86.3498 23.2212 86.3498 25.8537C86.3498 28.5293 87.3614 30.0254 89.0233 30.0254C90.6564 30.0254 91.6969 28.5293 91.6969 25.8537Z" fill="#00D4C6"/>
<path d="M98.5906 38.5702V34.9595C98.6628 34.9739 99.5444 34.9883 99.6311 34.9883C101.134 34.9883 101.857 34.6143 101.972 33.7224C101.972 33.6361 102.03 33.2765 102.001 33.1901L97.0298 18.5173H102.319L104.993 29.6082H105.079L107.739 18.5173H112.797L108.085 33.147C106.828 37.0885 104.66 38.5846 100.339 38.5846C100.267 38.5846 98.6484 38.5846 98.5906 38.5702Z" fill="#00D4C6"/>
<path d="M114.083 13.7414H118.895V33.1901H114.083V13.7414Z" fill="#00D4C6"/>
<path d="M121.251 14.9785C121.251 13.6551 122.32 12.6481 123.722 12.6481C125.124 12.6481 126.179 13.6551 126.179 14.9785C126.179 16.302 125.124 17.3233 123.722 17.3233C122.32 17.3233 121.251 16.302 121.251 14.9785ZM121.309 18.5029H126.107V33.1758H121.309V18.5029Z" fill="#00D4C6"/>
<path d="M128.448 18.5029H133.116V21.2648H133.217C133.968 19.3085 135.515 18.2152 137.784 18.2152C141.079 18.2152 142.9 20.2579 142.9 23.7535V33.1901H138.102V24.7892C138.102 23.1205 137.307 22.128 135.731 22.128C134.2 22.128 133.26 23.2788 133.26 24.8899V33.1901H128.448V18.5029Z" fill="#00D4C6"/>
<path d="M154.345 18.5029H159.693L154.447 24.7892L159.996 33.1901H154.476L150.891 27.6519L150.024 28.6876V33.1901H145.212V13.7414H150.024V24.0843H150.111L154.345 18.5029Z" fill="#00D4C6"/>
<path d="M167.02 18.1577C171.037 18.1577 173.552 20.0565 173.566 23.0918H169.173C169.13 22.0416 168.291 21.3799 166.962 21.3799C165.777 21.3799 165.025 21.8978 165.025 22.6458C165.025 23.2212 165.56 23.6384 166.673 23.8686L169.766 24.4871C172.699 25.1057 173.957 26.2996 173.957 28.5293C173.957 31.579 171.182 33.5354 167.063 33.5354C162.756 33.5354 160.271 31.579 160.068 28.5725H164.722C164.852 29.6658 165.733 30.3131 167.15 30.3131C168.422 30.3131 169.202 29.8528 169.202 29.076C169.202 28.4862 168.754 28.1409 167.598 27.8964L164.809 27.321C161.918 26.7168 160.415 25.2064 160.415 22.9479C160.444 20.0133 162.959 18.1577 167.02 18.1577Z" fill="#00D4C6"/>
<path d="M114.083 47.0143V38.714H115.383V47.0143H114.083Z" fill="#00D4C6"/>
<path d="M118.982 47.0143V39.8217H116.424V38.714H122.826V39.8217H120.282V47.0143H118.982Z" fill="#00D4C6"/>
<path d="M130.962 44.7702H127.783L127.017 47.0143H125.673L128.679 38.714H130.081L133.087 47.0143H131.714L130.962 44.7702ZM128.101 43.7345H130.63L129.387 40.095H129.358L128.101 43.7345Z" fill="#00D4C6"/>
<path d="M137.74 43.044C137.61 42.3966 137.133 41.8932 136.31 41.8932C135.341 41.8932 134.705 42.6987 134.705 43.9934C134.705 45.3168 135.341 46.0936 136.324 46.0936C137.09 46.0936 137.596 45.6764 137.74 44.9716H138.94C138.81 46.2662 137.769 47.1293 136.31 47.1293C134.575 47.1293 133.434 45.9498 133.434 43.9934C133.434 42.0658 134.561 40.8574 136.295 40.8574C137.856 40.8574 138.81 41.8644 138.925 43.044H137.74Z" fill="#00D4C6"/>
<path d="M139.59 45.3024C139.59 44.2379 140.4 43.5906 141.845 43.5187L143.507 43.418V42.9577C143.507 42.2816 143.044 41.8788 142.293 41.8788C141.57 41.8788 141.122 42.224 141.007 42.7707H139.822C139.894 41.6774 140.833 40.8718 142.336 40.8718C143.81 40.8718 144.75 41.6486 144.75 42.857V47.0287H143.55V46.0361H143.521C143.174 46.7122 142.394 47.1294 141.599 47.1294C140.414 47.115 139.59 46.3813 139.59 45.3024ZM143.507 44.7558V44.2667L142.004 44.353C141.252 44.4106 140.833 44.727 140.833 45.2449C140.833 45.7771 141.267 46.1224 141.946 46.1224C142.828 46.1368 143.507 45.5326 143.507 44.7558Z" fill="#00D4C6"/>
<path d="M145.689 43.9934C145.689 42.0802 146.701 40.8718 148.232 40.8718C149.1 40.8718 149.793 41.3034 150.14 41.9795H150.169V38.7284H151.426V47.0287H150.212V45.9929H150.183C149.822 46.6834 149.129 47.1294 148.247 47.1294C146.715 47.115 145.689 45.9066 145.689 43.9934ZM146.975 43.9934C146.975 45.2737 147.597 46.0649 148.579 46.0649C149.533 46.0649 150.183 45.2593 150.183 43.9934C150.183 42.7419 149.548 41.9219 148.579 41.9219C147.582 41.9219 146.975 42.7131 146.975 43.9934Z" fill="#00D4C6"/>
<path d="M157.915 45.2449C157.742 46.3526 156.687 47.1437 155.299 47.1437C153.507 47.1437 152.438 45.9354 152.438 44.0365C152.438 42.1377 153.536 40.8718 155.256 40.8718C156.947 40.8718 158.002 42.0514 158.002 43.8927V44.3242H153.71V44.3962C153.71 45.4463 154.346 46.1512 155.343 46.1512C156.051 46.1512 156.586 45.7915 156.745 45.2593H157.915V45.2449ZM153.695 43.4324H156.73C156.701 42.5117 156.109 41.85 155.242 41.85C154.375 41.85 153.753 42.5261 153.695 43.4324Z" fill="#00D4C6"/>
<path d="M158.956 40.9725H160.141V41.9939H160.17C160.444 41.3177 161.08 40.8718 161.904 40.8718C162.742 40.8718 163.363 41.3034 163.609 42.0514H163.638C163.956 41.3178 164.664 40.8718 165.531 40.8718C166.731 40.8718 167.525 41.663 167.525 42.8713V47.0287H166.268V43.1734C166.268 42.3966 165.849 41.9363 165.112 41.9363C164.375 41.9363 163.855 42.4829 163.855 43.2454V47.0287H162.626V43.0727C162.626 42.3822 162.178 41.9363 161.47 41.9363C160.733 41.9363 160.198 42.5117 160.198 43.2885V47.0287H158.956V40.9725Z" fill="#00D4C6"/>
<path d="M168.812 49.244V48.237C168.898 48.2658 169.115 48.2658 169.216 48.2658C169.794 48.2658 170.112 48.0212 170.3 47.4027C170.3 47.3883 170.416 47.0286 170.416 47.0286L168.219 40.9725H169.578L171.124 45.8922H171.139L172.685 40.9725H174L171.717 47.3451C171.196 48.8124 170.604 49.2871 169.332 49.2871C169.216 49.2727 168.898 49.2584 168.812 49.244Z" fill="#00D4C6"/>
</g>
<defs>
<clipPath id="clip0_16_513">
<rect width="174" height="62" fill="white"/>
</clipPath>
</defs>
</svg>
